<?xml version="1.0" encoding="UTF-8"?>
<svg xmlns="http://www.w3.org/2000/svg" xmlns:xlink="http://www.w3.org/1999/xlink" width="90px" height="90px" viewBox="0 0 90 90" version="1.1">
<g id="surface1">
<path style=" stroke:none;fill-rule:nonzero;fill:rgb(0%,20%,50.196081%);fill-opacity:1;" d="M 21.609375 45.730469 L 18.746094 45.730469 L 18.746094 49.226562 L 21.609375 49.226562 Z M 9.082031 72.183594 C 13.21875 77.453125 20.488281 76.25 20.488281 76.25 C 21.371094 68.792969 18.242188 66.375 18.242188 66.375 C 16.296875 70.332031 19.234375 75.113281 19.234375 75.113281 C 14.820312 71.175781 9.082031 72.183594 9.082031 72.183594 M 16.628906 31.265625 L 15.238281 30.015625 C 11.878906 30.839844 9.433594 33.710938 9.433594 33.710938 C 11.011719 30.070312 10.15625 26.664062 9.453125 24.855469 L 8.441406 24.054688 C 5.523438 29.386719 8.753906 35.238281 8.753906 35.238281 C 13.238281 34.195312 15.511719 32.488281 16.628906 31.265625 M 26.011719 79.917969 C 25.863281 77.601562 25.425781 75.914062 24.886719 74.566406 L 22.121094 74.570312 C 22.871094 77.101562 24.570312 79.007812 24.570312 79.007812 C 19.507812 75.871094 14.042969 77.820312 14.042969 77.820312 C 19.0625 82.316406 26.011719 79.917969 26.011719 79.917969 M 25.332031 40.394531 L 25.332031 70.761719 L 40.929688 70.761719 C 42.691406 70.808594 44.507812 72.140625 44.507812 72.140625 L 44.507812 47.84375 C 35.058594 47.648438 33.15625 40.394531 33.15625 40.394531 Z M 32.714844 58.855469 L 31.542969 58.855469 L 31.542969 64.734375 L 30.0625 64.734375 L 30.0625 58.855469 L 28.90625 58.855469 L 28.90625 57.515625 L 32.714844 57.515625 Z M 40.070312 64.847656 C 39.652344 64.847656 39.136719 64.726562 38.800781 64.484375 L 38.800781 63.121094 C 39.152344 63.355469 39.484375 63.511719 39.925781 63.511719 C 40.398438 63.511719 40.777344 63.199219 40.777344 62.722656 C 40.777344 62.167969 40.316406 61.957031 39.902344 61.667969 C 39.050781 61.113281 38.523438 60.578125 38.523438 59.527344 C 38.523438 58.386719 39.210938 57.398438 40.476562 57.398438 C 40.957031 57.398438 41.382812 57.527344 41.789062 57.753906 L 41.789062 59.144531 C 41.488281 58.894531 41.125 58.683594 40.71875 58.683594 C 40.257812 58.683594 39.96875 58.953125 39.96875 59.394531 C 39.96875 60.578125 42.222656 60.648438 42.222656 62.601562 C 42.222656 63.882812 41.460938 64.847656 40.070312 64.847656 M 41.171875 48.730469 L 42.648438 48.730469 L 42.648438 55.949219 L 41.171875 55.949219 Z M 36.515625 48.730469 L 38.007812 48.730469 C 38.953125 48.730469 40.632812 48.824219 40.632812 50.796875 C 40.632812 51.589844 40.308594 52.265625 39.578125 52.660156 L 40.875 55.945312 L 39.316406 55.945312 L 38.019531 52.613281 L 37.996094 52.613281 L 37.996094 55.945312 L 36.519531 55.945312 L 36.519531 48.730469 Z M 38.078125 64.734375 L 36.5 64.734375 L 36.222656 63.519531 L 34.722656 63.519531 L 34.449219 64.734375 L 32.984375 64.734375 L 34.722656 57.515625 L 36.277344 57.515625 Z M 36.21875 48.730469 L 36.21875 50.066406 L 34.71875 50.066406 L 34.71875 51.636719 L 36.035156 51.636719 L 36.035156 52.976562 L 34.71875 52.976562 L 34.71875 54.605469 L 36.234375 54.605469 L 36.234375 55.945312 L 33.242188 55.945312 L 33.242188 48.738281 L 31.167969 55.945312 L 29.957031 55.945312 L 27.792969 48.730469 L 29.378906 48.730469 L 30.273438 52.195312 C 30.40625 52.601562 30.453125 53.015625 30.542969 53.425781 L 30.5625 53.425781 C 30.640625 53.003906 30.671875 52.597656 30.789062 52.171875 L 31.695312 48.730469 Z M 61.542969 24.703125 L 56.867188 29.605469 L 56.914062 37.445312 C 56.914062 37.445312 56.769531 38.738281 56.484375 39.378906 L 59.488281 39.378906 L 68.074219 31.09375 Z M 21.703125 62.25 L 18.839844 62.25 L 18.839844 65.742188 L 21.703125 65.742188 Z M 26.378906 28.335938 L 32.390625 34.042969 L 32.390625 29.628906 L 26.378906 23.828125 Z M 21.636719 77.21875 C 22.011719 77.21875 22.316406 76.925781 22.316406 76.5625 C 22.316406 76.203125 22.011719 75.90625 21.636719 75.90625 C 21.265625 75.90625 20.960938 76.203125 20.960938 76.5625 C 20.960938 76.925781 21.265625 77.21875 21.636719 77.21875 M 10.75 30.496094 C 10.75 30.855469 11.054688 31.148438 11.429688 31.148438 C 11.804688 31.148438 12.105469 30.855469 12.105469 30.496094 C 12.105469 30.132812 11.804688 29.839844 11.429688 29.839844 C 11.054688 29.839844 10.75 30.132812 10.75 30.496094 M 21.679688 72.4375 C 21.703125 72.734375 21.761719 72.371094 21.761719 72.371094 L 21.761719 68.105469 L 21.03125 68.886719 C 21.445312 69.964844 21.589844 71.507812 21.679688 72.4375 M 32.390625 36.226562 L 32.390625 35.332031 L 27.953125 31.050781 L 17.558594 31.050781 L 23.429688 36.226562 Z M 9.832031 24.046875 C 9.832031 24.046875 9.441406 21.710938 11.96875 18.210938 L 3.433594 18.210938 C 3.433594 18.210938 3.796875 19.167969 9.832031 24.046875 M 2.429688 36.894531 C 0.90625 43.335938 6.535156 47.9375 6.535156 47.9375 C 13.019531 43.796875 12.925781 39.933594 12.925781 39.933594 C 8.539062 41.039062 6.628906 46.285156 6.628906 46.285156 C 6.914062 40.484375 2.429688 36.894531 2.429688 36.894531 M 7.460938 39.878906 C 8.785156 34.21875 5.019531 29.933594 5.019531 29.933594 C 2.351562 36.019531 7.066406 41.492188 7.066406 41.492188 C 14.203125 38.5 14.804688 34.683594 14.804688 34.683594 C 10.285156 35.03125 7.460938 39.878906 7.460938 39.878906 M 8.0625 42.578125 C 8.0625 42.21875 7.757812 41.921875 7.378906 41.921875 C 7.003906 41.921875 6.699219 42.21875 6.699219 42.578125 C 6.699219 42.941406 7.003906 43.234375 7.378906 43.234375 C 7.757812 43.234375 8.0625 42.941406 8.0625 42.578125 M 42.84375 75.78125 L 47.320312 75.78125 C 47.320312 75.78125 47.617188 73.90625 48.878906 73.90625 L 67.46875 73.90625 L 67.46875 42.363281 L 65.621094 40.488281 L 65.621094 71.746094 L 48.976562 71.746094 C 48.976562 71.746094 46.738281 71.933594 44.984375 73.996094 C 44.984375 73.996094 43.621094 72.027344 40.707031 71.839844 L 24.449219 71.839844 L 24.449219 40.769531 L 22.457031 42.691406 L 22.457031 73.90625 L 40.605469 73.90625 C 40.605469 73.90625 42.84375 73.996094 42.84375 75.78125 M 13.714844 17.816406 C 9.054688 22.65625 11.542969 29.359375 11.542969 29.359375 C 19.3125 28.902344 21.230469 25.511719 21.230469 25.511719 C 16.855469 24.347656 12.484375 27.96875 12.484375 27.96875 C 15.742188 23.085938 13.714844 17.816406 13.714844 17.816406 M 35.625 60.464844 L 35.457031 59.371094 L 35.4375 59.371094 L 35.277344 60.464844 L 34.957031 62.386719 L 36.003906 62.386719 Z M 78.570312 74.039062 C 79.703125 73.363281 80.777344 72.441406 81.671875 71.175781 C 81.671875 71.175781 79.210938 70.867188 76.335938 71.804688 Z M 83.300781 45.414062 C 83.300781 45.414062 81.265625 40.214844 76.851562 39.207031 C 76.851562 39.207031 76.847656 43.074219 83.433594 47.070312 C 83.433594 47.070312 88.949219 42.339844 87.269531 35.933594 C 87.269531 35.933594 82.871094 39.625 83.300781 45.414062 M 75.027344 60.9375 C 75.027344 60.9375 72.449219 63.902344 74.835938 71.042969 C 74.835938 71.042969 82.210938 70.839844 85.1875 64.890625 C 85.1875 64.890625 79.363281 64.992188 75.832031 69.695312 C 75.832031 69.695312 77.738281 64.449219 75.027344 60.9375 M 83.121094 51.863281 C 83.121094 51.863281 82.054688 46.398438 77.886719 44.671875 C 77.886719 44.671875 77.1875 48.480469 82.957031 53.515625 C 82.957031 53.515625 89.242188 49.785156 88.734375 43.195312 C 88.734375 43.195312 83.742188 46.09375 83.121094 51.863281 M 77.921875 50.226562 C 77.921875 50.226562 76.554688 53.863281 81.324219 59.789062 C 81.324219 59.789062 88.183594 57.167969 88.875 50.589844 C 88.875 50.589844 83.433594 52.605469 81.789062 58.1875 C 81.789062 58.1875 81.714844 52.625 77.921875 50.226562 M 82.289062 55.109375 C 82.664062 55.109375 82.96875 54.8125 82.96875 54.449219 C 82.96875 54.089844 82.664062 53.796875 82.289062 53.796875 C 81.914062 53.796875 81.609375 54.089844 81.609375 54.449219 C 81.609375 54.8125 81.914062 55.109375 82.289062 55.109375 M 78.3125 66.328125 C 78.3125 65.964844 78.011719 65.671875 77.636719 65.671875 C 77.261719 65.671875 76.957031 65.964844 76.957031 66.328125 C 76.957031 66.691406 77.261719 66.984375 77.636719 66.984375 C 78.011719 66.984375 78.3125 66.691406 78.3125 66.328125 M 20.847656 27.261719 L 20.851562 27.261719 C 20.578125 27.472656 18.691406 29.132812 15.8125 29.472656 L 16.792969 30.359375 L 27.097656 30.316406 L 23.898438 27.234375 L 23.894531 27.234375 L 22.277344 25.667969 C 22.277344 25.667969 21.128906 27.078125 20.847656 27.261719 M 60.679688 59.417969 L 60.660156 59.417969 L 60.503906 60.511719 L 60.1875 62.433594 L 61.226562 62.433594 L 60.847656 60.511719 Z M 39.195312 50.804688 C 39.195312 50.285156 38.9375 49.867188 38.195312 49.902344 L 37.996094 49.902344 L 37.996094 51.828125 L 38.257812 51.839844 C 38.929688 51.839844 39.195312 51.398438 39.195312 50.804688 M 45.558594 47.660156 L 45.558594 72.140625 C 45.558594 72.140625 46.992188 70.761719 48.992188 70.761719 L 64.738281 70.761719 L 64.738281 40.394531 L 56.246094 40.394531 C 56.246094 40.394531 53.832031 47.554688 45.558594 47.660156 M 47.457031 48.773438 L 48.933594 48.773438 L 48.933594 54.652344 L 50.480469 54.652344 L 50.480469 55.988281 L 47.457031 55.988281 Z M 52.253906 64.78125 L 51.898438 59.582031 L 51.875 59.582031 L 51.636719 61.363281 L 51.003906 64.78125 L 49.863281 64.78125 L 49.140625 61.324219 L 48.890625 59.714844 L 48.890625 59.582031 L 48.871094 59.582031 L 48.648438 64.78125 L 47.066406 64.78125 L 47.71875 57.5625 L 49.664062 57.5625 L 50.390625 61.824219 L 50.40625 61.824219 L 51.003906 57.5625 L 52.992188 57.5625 L 53.773438 64.78125 Z M 61.71875 64.78125 L 61.445312 63.5625 L 59.945312 63.5625 L 59.679688 64.78125 L 58.210938 64.78125 L 59.945312 57.5625 L 61.503906 57.5625 L 63.300781 64.78125 Z M 57.21875 48.773438 L 58.882812 48.773438 L 59.3125 49.78125 C 59.4375 50.136719 59.589844 50.507812 59.664062 50.878906 L 59.6875 50.878906 C 59.765625 50.507812 59.890625 50.144531 60.023438 49.78125 L 60.472656 48.773438 L 62.070312 48.773438 L 60.472656 52.265625 L 62.1875 55.988281 L 60.472656 55.988281 L 60 54.84375 C 59.859375 54.476562 59.765625 54.125 59.664062 53.761719 L 59.648438 53.761719 C 59.539062 54.125 59.449219 54.476562 59.324219 54.84375 L 58.882812 55.988281 L 57.21875 55.988281 L 58.804688 52.265625 Z M 57.621094 57.5625 L 57.621094 58.902344 L 56.121094 58.902344 L 56.121094 60.46875 L 57.441406 60.46875 L 57.441406 61.8125 L 56.121094 61.8125 L 56.121094 63.441406 L 57.640625 63.441406 L 57.640625 64.78125 L 54.644531 64.78125 L 54.644531 57.5625 Z M 53.816406 54.8125 C 54.539062 54.8125 54.539062 54.285156 54.546875 53.75 L 54.546875 48.773438 L 56.027344 48.773438 L 56.027344 54.035156 C 56.027344 54.804688 55.9375 56.101562 53.804688 56.101562 C 52.425781 56.101562 51.601562 55.484375 51.601562 54.132812 L 51.601562 48.773438 L 53.082031 48.773438 L 53.082031 53.445312 C 53.082031 53.992188 53.007812 54.8125 53.816406 54.8125 M 25.449219 23.023438 C 25.449219 23.023438 24.78125 23.964844 22.226562 24.496094 L 25.449219 27.371094 Z M 33.625 35.585938 C 33.625 43.226562 38.59375 46.753906 44.710938 46.753906 C 50.84375 46.753906 55.816406 43.238281 55.816406 35.585938 L 55.816406 13.8125 L 33.632812 13.8125 C 33.632812 13.8125 33.628906 27.957031 33.628906 35.585938 M 38.972656 20.15625 L 38.972656 16.9375 L 49.375 16.9375 L 49.375 21.539062 L 52.808594 21.539062 L 52.808594 24.851562 L 49.472656 24.851562 L 49.472656 26.324219 L 52.808594 26.324219 L 52.808594 29.914062 L 49.472656 29.914062 L 49.472656 40.683594 L 46.605469 40.683594 L 42.644531 36.859375 L 39.023438 40.355469 L 36.398438 37.828125 L 42.410156 32.027344 L 45.511719 35.019531 L 45.511719 20.15625 Z M 24.148438 37.035156 L 26.796875 39.285156 L 32.773438 39.285156 C 32.484375 38.828125 32.578125 37.078125 32.578125 37.078125 Z M 72.222656 65.824219 C 72.222656 65.824219 71.742188 66.316406 71.582031 67.054688 L 73.015625 68.496094 C 72.9375 67.597656 72.699219 66.6875 72.222656 65.824219 M 15.714844 71.710938 C 17.925781 64.515625 15.277344 61.617188 15.277344 61.617188 C 12.652344 65.179688 14.683594 70.382812 14.683594 70.382812 C 11.042969 65.765625 5.214844 65.796875 5.214844 65.796875 C 8.335938 71.679688 15.714844 71.710938 15.714844 71.710938 M 15.347656 24.035156 C 23.078125 24.886719 25.574219 21.867188 25.574219 21.867188 C 21.484375 19.992188 16.523438 22.824219 16.523438 22.824219 C 20.609375 18.558594 19.566406 13.03125 19.566406 13.03125 C 14.101562 17.019531 15.347656 24.035156 15.347656 24.035156 M 31.527344 76.765625 C 31.894531 81.132812 36.914062 83.851562 36.914062 83.851562 C 31.050781 82.574219 26.601562 86.210938 26.601562 86.210938 C 32.917969 88.78125 38.59375 84.234375 38.59375 84.234375 C 35.492188 77.347656 31.527344 76.765625 31.527344 76.765625 M 11.832031 66.441406 C 15.300781 59.730469 13.21875 56.429688 13.21875 56.429688 C 9.984375 59.5 11.054688 64.964844 11.054688 64.964844 C 8.292969 59.804688 2.550781 58.859375 2.550781 58.859375 C 4.570312 65.171875 11.832031 66.441406 11.832031 66.441406 M 27.425781 74.585938 L 26.464844 74.578125 C 26.410156 78.703125 30.527344 81.953125 30.527344 81.953125 C 24.972656 79.710938 19.941406 82.546875 19.941406 82.546875 C 25.699219 86.132812 32.105469 82.605469 32.105469 82.605469 C 30.859375 77.589844 28.671875 75.441406 27.425781 74.585938 M 13.105469 77.699219 C 13.105469 77.699219 14.160156 77.09375 15.699219 76.871094 L 13.996094 76.480469 L 13.832031 76.6875 C 13.925781 76.558594 13.996094 76.480469 13.996094 76.480469 L 6.4375 84.148438 C 6.4375 84.148438 5.582031 85.347656 6.390625 86.128906 C 6.390625 86.128906 7.152344 86.730469 8.207031 86.039062 L 15.5625 79.832031 C 14.820312 79.460938 13.191406 78.15625 13.105469 77.699219 M 8.953125 60.605469 C 13.582031 54.570312 12.121094 50.972656 12.121094 50.972656 C 8.386719 53.457031 8.453125 59.019531 8.453125 59.019531 C 6.667969 53.472656 1.179688 51.578125 1.179688 51.578125 C 2.03125 58.140625 8.953125 60.605469 8.953125 60.605469 M 12.832031 17.429688 L 3.886719 8.800781 C 3.886719 8.800781 0.144531 11.390625 3.054688 17.429688 Z M 16.878906 14.292969 L 11.617188 9.167969 C 8.359375 6.03125 4.496094 8.101562 4.496094 8.101562 L 14.859375 18.050781 C 15.550781 15.5 16.878906 14.292969 16.878906 14.292969 M 7.1875 55.285156 C 7.1875 55.648438 7.492188 55.941406 7.867188 55.941406 C 8.242188 55.941406 8.542969 55.648438 8.542969 55.285156 C 8.542969 54.921875 8.242188 54.628906 7.867188 54.628906 C 7.492188 54.628906 7.1875 54.921875 7.1875 55.285156 M 7.171875 54.375 C 12.8125 49.207031 12.023438 45.417969 12.023438 45.417969 C 7.898438 47.242188 6.964844 52.726562 6.964844 52.726562 C 6.203125 46.96875 1.140625 44.183594 1.140625 44.183594 C 0.796875 50.789062 7.171875 54.375 7.171875 54.375 M 12.125 67.082031 C 12.125 67.445312 12.429688 67.738281 12.804688 67.738281 C 13.179688 67.738281 13.484375 67.445312 13.484375 67.082031 C 13.484375 66.71875 13.179688 66.425781 12.804688 66.425781 C 12.429688 66.425781 12.125 66.71875 12.125 67.082031 M 69.027344 76.652344 C 69.402344 76.652344 69.707031 76.359375 69.707031 75.996094 C 69.707031 75.632812 69.402344 75.339844 69.027344 75.339844 C 68.652344 75.339844 68.347656 75.632812 68.347656 75.996094 C 68.347656 76.359375 68.652344 76.652344 69.027344 76.652344 M 72.640625 75.800781 L 70.25 73.921875 C 70.300781 74.507812 70.378906 75.128906 70.492188 75.792969 C 70.492188 75.792969 71.351562 75.890625 72.640625 75.800781 M 79.332031 64.191406 C 79.332031 64.191406 80.265625 58.703125 76.960938 55.707031 C 76.960938 55.707031 74.957031 59.054688 78.59375 65.6875 C 78.59375 65.6875 85.820312 64.257812 87.683594 57.898438 C 87.683594 57.898438 81.960938 58.972656 79.332031 64.191406 M 33.976562 82.496094 C 33.976562 82.136719 33.675781 81.839844 33.296875 81.839844 C 32.921875 81.839844 32.617188 82.136719 32.617188 82.496094 C 32.617188 82.859375 32.921875 83.152344 33.296875 83.152344 C 33.675781 83.152344 33.976562 82.859375 33.976562 82.496094 M 66.164062 78.539062 C 66.164062 78.539062 67.636719 76.835938 68.359375 74.4375 L 65.597656 74.398438 C 65.15625 75.707031 64.828125 77.371094 64.746094 79.480469 C 64.746094 79.480469 70.71875 81.394531 75.503906 78.054688 L 73.660156 76.625 C 71.617188 76.511719 68.816406 76.808594 66.164062 78.539062 M 68.175781 67.910156 L 68.175781 71.40625 L 84.394531 84.382812 L 87.636719 84.382812 L 71.128906 67.910156 Z M 44.414062 83 L 44.414062 84.632812 C 43.632812 83.449219 40.574219 79.132812 37.121094 78.921875 C 37.121094 78.921875 38.296875 82.773438 43.464844 85.042969 C 43.464844 85.042969 36.980469 85.453125 34.332031 88.878906 C 34.332031 88.878906 39.988281 89.371094 44.414062 85.128906 L 44.414062 87.789062 L 46.132812 87.789062 L 46.132812 83 Z M 47.277344 85.023438 C 52.429688 82.726562 53.578125 78.863281 53.578125 78.863281 C 49.570312 79.132812 46.132812 84.933594 46.132812 84.933594 C 50.617188 89.351562 56.4375 88.800781 56.4375 88.800781 C 53.765625 85.390625 47.277344 85.023438 47.277344 85.023438 M 53.933594 83.660156 C 53.933594 83.660156 58.894531 80.824219 59.152344 76.457031 C 59.152344 76.457031 55.203125 77.128906 52.269531 84.078125 C 52.269531 84.078125 58.050781 88.492188 64.304688 85.789062 C 64.304688 85.789062 59.773438 82.25 53.933594 83.660156 M 60.28125 81.613281 C 60.28125 81.613281 64.128906 78.425781 64.164062 74.441406 L 62.789062 74.496094 C 61.546875 75.546875 59.726562 77.78125 58.714844 82.304688 C 58.714844 82.304688 65.210938 85.683594 70.871094 81.972656 C 70.871094 81.972656 65.773438 79.25 60.28125 81.613281 M 56.867188 82.246094 C 56.867188 82.609375 57.171875 82.902344 57.550781 82.902344 C 57.925781 82.902344 58.230469 82.609375 58.230469 82.246094 C 58.230469 81.882812 57.925781 81.589844 57.550781 81.589844 C 57.171875 81.589844 56.867188 81.882812 56.867188 82.246094 M 80.902344 34.421875 C 80.902344 34.421875 84.410156 28.160156 80.558594 22.695312 C 80.558594 22.695312 77.738281 27.609375 80.191406 32.914062 C 80.191406 32.914062 76.4375 28.699219 71.929688 29.207031 C 71.929688 29.207031 73.300781 32.84375 80.902344 34.421875 M 64.40625 19.78125 L 66.460938 17.730469 C 64.707031 17.335938 61.417969 16.769531 58.753906 18.6875 C 58.753906 18.6875 60.121094 20.183594 64.40625 19.78125 M 78.097656 30.402344 C 78.472656 30.402344 78.777344 30.109375 78.777344 29.746094 C 78.777344 29.386719 78.472656 29.089844 78.097656 29.089844 C 77.722656 29.089844 77.417969 29.386719 77.417969 29.746094 C 77.417969 30.109375 77.722656 30.402344 78.097656 30.402344 M 82.746094 40.636719 C 82.746094 40.636719 87.328125 35.058594 84.511719 29.027344 C 84.511719 29.027344 80.847656 33.402344 82.3125 39.035156 C 82.3125 39.035156 79.375 34.25 74.84375 34 C 74.84375 34 75.539062 37.808594 82.746094 40.636719 M 72.84375 9.214844 C 74.988281 10.242188 76.714844 9.164062 76.714844 9.164062 C 79.105469 8.035156 80.828125 9.601562 80.828125 9.601562 C 82.492188 10.855469 82.222656 12.507812 82.222656 12.507812 C 82.222656 13.773438 81.84375 13.859375 81.84375 13.859375 C 81.046875 14.386719 81.246094 13.496094 81.246094 13.496094 C 81.269531 13.484375 81.429688 12.875 81.429688 12.875 C 81.742188 10.015625 79.082031 9.605469 79.082031 9.605469 C 76.257812 9.128906 75.558594 11.644531 75.558594 11.644531 C 75.378906 12.335938 75.363281 12.949219 75.445312 13.492188 L 71.917969 10.09375 L 72.082031 12.96875 L 79.957031 20.558594 L 82.773438 20.558594 L 79.914062 17.800781 C 81.425781 18.257812 82.746094 18.308594 82.746094 18.308594 C 86.765625 18.070312 87.1875 14.363281 87.1875 14.363281 C 88.25 10.488281 84.441406 7.359375 84.441406 7.359375 C 81.902344 5.253906 78.058594 5.082031 78.058594 5.082031 C 72.59375 4.472656 70.65625 1.105469 70.65625 1.105469 C 70.015625 2.636719 70.183594 4.90625 70.183594 4.90625 C 70.546875 8.398438 72.84375 9.214844 72.84375 9.214844 M 81.777344 41.714844 C 81.777344 42.078125 82.082031 42.371094 82.460938 42.371094 C 82.832031 42.371094 83.140625 42.078125 83.140625 41.714844 C 83.140625 41.351562 82.832031 41.058594 82.460938 41.058594 C 82.082031 41.058594 81.777344 41.351562 81.777344 41.714844 M 66.863281 17.222656 L 68.53125 15.597656 C 67.824219 13.300781 66.390625 10.535156 62.851562 8.886719 C 62.851562 8.886719 62.707031 13.792969 66.863281 17.222656 M 71.039062 62.574219 L 68.175781 62.574219 L 68.175781 66.070312 L 71.039062 66.070312 Z M 73.261719 27.921875 C 74.527344 28.269531 76.078125 28.53125 77.976562 28.605469 C 77.976562 28.605469 78.835938 26.128906 78.464844 23.121094 L 75.984375 25.414062 C 76.25 26.019531 76.589844 26.632812 77.011719 27.234375 C 77.011719 27.234375 76.328125 26.691406 75.234375 26.105469 Z M 18.882812 20.460938 C 18.882812 20.824219 19.1875 21.117188 19.5625 21.117188 C 19.9375 21.117188 20.242188 20.824219 20.242188 20.460938 C 20.242188 20.097656 19.9375 19.804688 19.5625 19.804688 C 19.1875 19.804688 18.882812 20.097656 18.882812 20.460938 M 78.761719 21.25 L 71.417969 14.164062 L 64.832031 21.0625 L 71.894531 27.785156 Z M 63.167969 21.480469 L 61.6875 23.183594 L 69.699219 30.914062 L 71.324219 29.351562 Z M 70.894531 45.453125 L 68.03125 45.453125 L 68.03125 48.949219 L 70.894531 48.949219 Z M 36.597656 12.0625 C 36.597656 12.0625 38.851562 13.496094 42.808594 10.867188 C 42.808594 10.867188 37.910156 8.929688 36.597656 12.0625 M 62.125 14.535156 C 62.125 14.535156 59.898438 13.890625 57.089844 14.808594 L 57.085938 17.285156 C 58.796875 17.25 60.535156 16.851562 63.679688 15.25 C 63.679688 15.25 62.191406 8.28125 55.601562 6.484375 C 55.601562 6.484375 56.714844 12 62.125 14.535156 M 32.582031 17.613281 L 32.636719 15.210938 C 29.859375 14.421875 27.050781 14.9375 27.050781 14.9375 C 32.398438 12.273438 33.378906 6.734375 33.378906 6.734375 C 26.832031 8.679688 25.515625 15.683594 25.515625 15.683594 C 28.535156 17.132812 30.886719 17.578125 32.582031 17.613281 M 30.523438 19.007812 C 26.824219 16.472656 21.429688 18.433594 21.429688 18.433594 C 26.21875 14.921875 26.1875 9.296875 26.1875 9.296875 C 20.085938 12.316406 20.054688 19.429688 20.054688 19.429688 C 27.511719 21.5625 30.523438 19.007812 30.523438 19.007812 M 30.097656 13.730469 C 30.097656 14.09375 30.402344 14.386719 30.78125 14.386719 C 31.15625 14.386719 31.460938 14.09375 31.460938 13.730469 C 31.460938 13.367188 31.15625 13.074219 30.78125 13.074219 C 30.402344 13.074219 30.097656 13.367188 30.097656 13.730469 M 31.746094 13.035156 L 36.878906 12.96875 C 35.285156 12.042969 33.539062 12.074219 33.539062 12.074219 C 39.285156 10.351562 40.921875 5.410156 40.921875 5.410156 C 34.128906 6.230469 31.570312 12.90625 31.570312 12.90625 C 31.660156 12.972656 31.660156 12.972656 31.746094 13.035156 M 59.144531 13.371094 C 59.144531 13.007812 58.84375 12.714844 58.46875 12.714844 C 58.089844 12.714844 57.785156 13.007812 57.785156 13.371094 C 57.785156 13.734375 58.089844 14.027344 58.46875 14.027344 C 58.84375 14.027344 59.144531 13.734375 59.144531 13.371094 M 55.542969 12.074219 C 55.542969 12.074219 53.796875 12.042969 52.203125 12.96875 L 57.335938 13.035156 C 57.421875 12.972656 57.425781 12.972656 57.511719 12.90625 C 57.511719 12.90625 54.960938 6.230469 48.160156 5.410156 C 48.160156 5.410156 49.796875 10.351562 55.542969 12.074219 M 44.511719 11.316406 C 45.015625 11.316406 45.421875 10.921875 45.421875 10.4375 C 45.421875 9.949219 45.015625 9.558594 44.511719 9.558594 C 44.007812 9.558594 43.597656 9.949219 43.597656 10.4375 C 43.597656 10.921875 44.007812 11.316406 44.511719 11.316406 M 52.476562 11.773438 C 51.046875 8.6875 46.226562 10.808594 46.226562 10.808594 C 50.285156 13.289062 52.476562 11.773438 52.476562 11.773438 "/>
</g>
</svg>
