<?xml version="1.0" encoding="UTF-8"?>
<svg xmlns="http://www.w3.org/2000/svg" xmlns:xlink="http://www.w3.org/1999/xlink" width="90px" height="90px" viewBox="0 0 90 90" version="1.1">
<g id="surface1">
<path style=" stroke:none;fill-rule:nonzero;fill:rgb(0%,0%,0%);fill-opacity:1;" d="M 27.679688 3.96875 C 22.378906 6.210938 17.617188 9.421875 13.53125 13.511719 C 9.441406 17.601562 6.234375 22.359375 3.992188 27.660156 C 1.667969 33.152344 0.492188 38.980469 0.492188 44.992188 C 0.492188 51 1.667969 56.832031 3.992188 62.320312 C 6.234375 67.621094 9.441406 72.382812 13.53125 76.46875 C 17.617188 80.558594 22.378906 83.769531 27.679688 86.011719 C 33.167969 88.332031 39 89.507812 45.007812 89.507812 C 51.019531 89.507812 56.847656 88.332031 62.339844 86.011719 C 67.640625 83.769531 72.402344 80.558594 76.488281 76.46875 C 80.578125 72.382812 83.789062 67.621094 86.03125 62.320312 C 88.351562 56.828125 89.527344 51 89.527344 44.988281 C 89.527344 38.976562 88.351562 33.148438 86.027344 27.660156 C 83.785156 22.355469 80.578125 17.597656 76.488281 13.511719 C 72.402344 9.417969 67.636719 6.210938 62.335938 3.96875 C 56.847656 1.648438 51.019531 0.46875 45.007812 0.46875 C 38.996094 0.46875 33.167969 1.648438 27.679688 3.96875 "/>
<path style=" stroke:none;fill-rule:nonzero;fill:rgb(100%,100%,100%);fill-opacity:1;" d="M 27.785156 85.765625 C 22.515625 83.539062 17.78125 80.347656 13.71875 76.28125 C 9.652344 72.214844 6.460938 67.484375 4.234375 62.214844 C 1.925781 56.761719 0.757812 50.964844 0.757812 44.992188 C 0.757812 39.015625 1.925781 33.21875 4.234375 27.765625 C 6.460938 22.496094 9.652344 17.765625 13.71875 13.699219 C 17.78125 9.636719 22.515625 6.441406 27.785156 4.214844 C 33.238281 1.90625 39.035156 0.738281 45.007812 0.738281 C 50.984375 0.738281 56.78125 1.90625 62.234375 4.214844 C 67.503906 6.441406 72.234375 9.636719 76.300781 13.699219 C 80.367188 17.765625 83.554688 22.496094 85.785156 27.765625 C 88.09375 33.222656 89.265625 39.015625 89.265625 44.992188 C 89.265625 50.964844 88.09375 56.757812 85.785156 62.214844 C 83.554688 67.484375 80.367188 72.21875 76.300781 76.28125 C 72.234375 80.347656 67.503906 83.539062 62.234375 85.765625 C 56.78125 88.074219 50.984375 89.246094 45.007812 89.246094 C 39.035156 89.246094 33.242188 88.074219 27.785156 85.765625 "/>
<path style=" stroke:none;fill-rule:nonzero;fill:rgb(0%,0%,0%);fill-opacity:1;" d="M 28.042969 4.832031 C 22.855469 7.027344 18.195312 10.171875 14.191406 14.171875 C 10.191406 18.175781 7.046875 22.835938 4.851562 28.023438 C 2.578125 33.398438 1.425781 39.105469 1.425781 44.992188 C 1.425781 50.875 2.578125 56.582031 4.851562 61.953125 C 7.046875 67.144531 10.191406 71.804688 14.191406 75.808594 C 18.195312 79.808594 22.855469 82.953125 28.046875 85.148438 C 33.417969 87.417969 39.128906 88.574219 45.011719 88.574219 C 50.894531 88.574219 56.601562 87.417969 61.972656 85.148438 C 67.164062 82.953125 71.824219 79.808594 75.828125 75.808594 C 79.828125 71.804688 82.972656 67.144531 85.167969 61.953125 C 87.441406 56.582031 88.59375 50.875 88.59375 44.992188 C 88.59375 39.105469 87.441406 33.398438 85.167969 28.027344 C 82.972656 22.839844 79.832031 18.175781 75.828125 14.175781 C 71.824219 10.171875 67.164062 7.027344 61.976562 4.835938 C 56.601562 2.5625 50.894531 1.410156 45.011719 1.410156 C 39.128906 1.410156 33.421875 2.5625 28.046875 4.835938 "/>
<path style=" stroke:none;fill-rule:nonzero;fill:rgb(100%,100%,100%);fill-opacity:1;" d="M 28.097656 85.027344 C 22.925781 82.835938 18.277344 79.707031 14.285156 75.714844 C 10.296875 71.722656 7.164062 67.078125 4.972656 61.902344 C 2.707031 56.546875 1.5625 50.855469 1.5625 44.992188 C 1.5625 39.125 2.707031 33.433594 4.972656 28.078125 C 7.164062 22.90625 10.296875 18.257812 14.285156 14.269531 C 18.277344 10.277344 22.925781 7.144531 28.097656 4.953125 C 33.453125 2.691406 39.144531 1.539062 45.007812 1.539062 C 50.875 1.539062 56.566406 2.691406 61.921875 4.953125 C 67.09375 7.144531 71.742188 10.277344 75.730469 14.269531 C 79.722656 18.257812 82.855469 22.90625 85.046875 28.078125 C 87.3125 33.433594 88.460938 39.125 88.460938 44.988281 C 88.460938 50.855469 87.3125 56.546875 85.046875 61.902344 C 82.855469 67.074219 79.722656 71.722656 75.730469 75.714844 C 71.742188 79.707031 67.09375 82.835938 61.921875 85.023438 C 56.566406 87.292969 50.875 88.441406 45.007812 88.441406 C 39.144531 88.441406 33.453125 87.292969 28.097656 85.027344 "/>
<path style=" stroke:none;fill-rule:nonzero;fill:rgb(0%,0%,0%);fill-opacity:1;" d="M 32.917969 16.371094 C 29.21875 17.933594 25.898438 20.171875 23.046875 23.027344 C 20.191406 25.878906 17.953125 29.199219 16.386719 32.898438 C 14.769531 36.730469 13.949219 40.796875 13.949219 44.992188 C 13.949219 49.183594 14.769531 53.25 16.386719 57.082031 C 17.953125 60.78125 20.191406 64.101562 23.046875 66.953125 C 25.898438 69.808594 29.222656 72.046875 32.917969 73.613281 C 36.75 75.230469 40.816406 76.050781 45.007812 76.050781 C 49.203125 76.050781 53.273438 75.230469 57.097656 73.613281 C 60.796875 72.046875 64.121094 69.808594 66.972656 66.953125 C 69.828125 64.101562 72.066406 60.78125 73.628906 57.082031 C 75.25 53.25 76.074219 49.183594 76.074219 44.992188 C 76.074219 40.796875 75.25 36.730469 73.628906 32.898438 C 72.066406 29.199219 69.828125 25.878906 66.972656 23.027344 C 64.121094 20.175781 60.796875 17.933594 57.097656 16.371094 C 53.269531 14.75 49.203125 13.929688 45.007812 13.929688 C 40.816406 13.929688 36.746094 14.75 32.917969 16.371094 "/>
<path style=" stroke:none;fill-rule:nonzero;fill:rgb(100%,100%,100%);fill-opacity:1;" d="M 32.96875 73.488281 C 29.285156 71.929688 25.980469 69.699219 23.140625 66.859375 C 20.300781 64.019531 18.066406 60.710938 16.507812 57.03125 C 14.898438 53.214844 14.082031 49.167969 14.082031 44.992188 C 14.082031 40.816406 14.898438 36.765625 16.507812 32.953125 C 18.066406 29.269531 20.300781 25.960938 23.140625 23.121094 C 25.980469 20.28125 29.285156 18.050781 32.96875 16.492188 C 36.78125 14.878906 40.835938 14.0625 45.007812 14.0625 C 49.183594 14.0625 53.234375 14.878906 57.046875 16.492188 C 60.730469 18.050781 64.039062 20.28125 66.878906 23.121094 C 69.722656 25.960938 71.949219 29.269531 73.507812 32.953125 C 75.121094 36.765625 75.9375 40.816406 75.9375 44.992188 C 75.9375 49.167969 75.121094 53.21875 73.507812 57.03125 C 71.949219 60.710938 69.722656 64.019531 66.878906 66.859375 C 64.039062 69.703125 60.730469 71.929688 57.046875 73.488281 C 53.234375 75.101562 49.183594 75.921875 45.007812 75.921875 C 40.835938 75.921875 36.78125 75.101562 32.96875 73.488281 "/>
<path style=" stroke:none;fill-rule:nonzero;fill:rgb(0%,0%,0%);fill-opacity:1;" d="M 33.195312 17.019531 C 29.578125 18.546875 26.332031 20.738281 23.542969 23.523438 C 20.757812 26.3125 18.570312 29.558594 17.039062 33.175781 C 15.457031 36.917969 14.652344 40.894531 14.652344 44.992188 C 14.652344 49.089844 15.457031 53.0625 17.039062 56.804688 C 18.570312 60.421875 20.757812 63.667969 23.542969 66.457031 C 26.332031 69.246094 29.578125 71.433594 33.195312 72.960938 C 36.9375 74.542969 40.914062 75.347656 45.011719 75.347656 C 49.109375 75.347656 53.082031 74.542969 56.828125 72.960938 C 60.441406 71.433594 63.6875 69.246094 66.476562 66.457031 C 69.265625 63.667969 71.453125 60.421875 72.980469 56.804688 C 74.5625 53.0625 75.367188 49.089844 75.367188 44.992188 C 75.367188 40.894531 74.5625 36.917969 72.980469 33.175781 C 71.453125 29.558594 69.265625 26.3125 66.476562 23.523438 C 63.6875 20.734375 60.441406 18.546875 56.824219 17.019531 C 53.078125 15.4375 49.105469 14.632812 45.007812 14.632812 C 40.910156 14.632812 36.933594 15.4375 33.191406 17.019531 "/>
<path style=" stroke:none;fill-rule:nonzero;fill:rgb(100%,100%,100%);fill-opacity:1;" d="M 33.296875 72.71875 C 29.714844 71.199219 26.496094 69.03125 23.730469 66.269531 C 20.96875 63.503906 18.800781 60.285156 17.28125 56.703125 C 15.714844 52.992188 14.917969 49.050781 14.917969 44.992188 C 14.917969 40.925781 15.714844 36.988281 17.28125 33.277344 C 18.800781 29.695312 20.96875 26.476562 23.730469 23.710938 C 26.496094 20.949219 29.714844 18.78125 33.296875 17.265625 C 37.007812 15.695312 40.945312 14.898438 45.007812 14.898438 C 49.074219 14.898438 53.011719 15.695312 56.722656 17.265625 C 60.304688 18.78125 63.523438 20.949219 66.289062 23.710938 C 69.050781 26.476562 71.21875 29.695312 72.734375 33.277344 C 74.304688 36.988281 75.101562 40.925781 75.101562 44.992188 C 75.101562 49.054688 74.304688 52.996094 72.734375 56.703125 C 71.21875 60.285156 69.050781 63.503906 66.289062 66.269531 C 63.523438 69.03125 60.304688 71.199219 56.722656 72.714844 C 53.011719 74.285156 49.074219 75.082031 45.007812 75.082031 C 40.945312 75.082031 37.007812 74.285156 33.296875 72.714844 "/>
<path style=" stroke:none;fill-rule:nonzero;fill:rgb(100%,83.529413%,12.54902%);fill-opacity:1;" d="M 44.949219 16.613281 C 29.734375 16.613281 16.929688 29.03125 16.636719 44.453125 L 16.648438 44.480469 C 16.660156 44.523438 16.804688 44.804688 17.398438 45.183594 C 17.996094 45.558594 18.878906 45.957031 20.046875 46.257812 C 21.488281 46.625 23 46.929688 24.410156 47.167969 L 24.4375 47.175781 C 28.734375 47.90625 32.21875 48.203125 37.351562 48.410156 C 39.765625 48.511719 42.191406 48.605469 44.585938 48.597656 C 44.582031 47.148438 44.578125 38.90625 44.640625 30.949219 C 44.652344 29.921875 44.664062 28.847656 44.675781 27.769531 C 44.738281 22.585938 44.851562 17.308594 44.949219 16.613281 M 73.375 44.367188 C 73.375 44.492188 72.871094 44.914062 72.332031 45.242188 C 72.316406 45.25 72.304688 45.257812 72.292969 45.265625 C 71.558594 45.664062 70.523438 46.039062 69.230469 46.375 C 67.90625 46.726562 66.273438 47.042969 64.476562 47.316406 C 62.679688 47.59375 60.675781 47.800781 58.519531 47.992188 C 55.757812 48.238281 54.019531 48.34375 51.820312 48.453125 C 49.480469 48.550781 47.050781 48.601562 44.585938 48.601562 C 44.585938 48.910156 44.585938 49.226562 44.585938 49.539062 C 44.589844 51.753906 44.597656 53.871094 44.609375 55.859375 C 44.664062 66.753906 44.679688 66.742188 45.007812 73.371094 C 60.675781 73.371094 73.378906 60.667969 73.378906 44.996094 C 73.378906 44.996094 73.375 44.585938 73.375 44.363281 "/>
<path style=" stroke:none;fill-rule:nonzero;fill:rgb(78.431374%,6.27451%,18.039216%);fill-opacity:1;" d="M 44.949219 16.613281 L 44.960938 16.636719 C 45.605469 17.582031 46.902344 18.140625 47.183594 18.222656 C 47.101562 18.566406 47.160156 19.253906 48.359375 20.117188 C 48.542969 20.253906 48.726562 20.359375 48.894531 20.445312 C 50.738281 21.410156 51.148438 20.660156 51.234375 20.359375 C 51.242188 20.347656 51.253906 20.339844 51.265625 20.335938 C 51.828125 20.746094 52.921875 21.628906 54.136719 23 C 54.832031 23.839844 55.488281 24.566406 55.988281 25.300781 C 54.847656 25.445312 53.335938 25.582031 51.839844 25.683594 C 51.757812 23.878906 50.453125 22.972656 49.628906 22.667969 C 47.832031 22 47.242188 24.117188 48.019531 25.605469 C 46.597656 24.835938 44.914062 25.519531 44.675781 27.765625 C 50.296875 27.734375 54.148438 27.484375 58.417969 26.878906 C 54.804688 21.359375 51.953125 19.351562 48.289062 17.90625 C 47.558594 17.617188 45.074219 16.644531 44.949219 16.613281 Z M 58.417969 26.878906 L 58.421875 26.878906 L 58.417969 26.875 Z M 45.976562 16.636719 C 47.40625 16.761719 48.375 17.144531 48.609375 17.222656 C 48.789062 17.285156 48.933594 17.386719 49.023438 17.460938 C 49.03125 17.457031 49.035156 17.457031 49.035156 17.457031 C 49.320312 17.488281 49.644531 17.542969 50.046875 17.660156 C 50.488281 17.789062 51.222656 18.058594 51.871094 18.363281 C 52.523438 18.671875 53.492188 19.363281 53.496094 19.75 C 53.347656 19.84375 53.300781 19.871094 52.863281 19.75 C 54.542969 20.949219 56.949219 23.203125 58.371094 24.863281 C 59.347656 24.675781 60.804688 24.46875 61.476562 24.242188 C 61.433594 24.289062 59.257812 22.660156 58.773438 21.738281 C 58.757812 21.714844 58.742188 21.613281 58.761719 21.539062 C 58.777344 21.464844 58.839844 21.402344 58.839844 21.402344 C 58.839844 21.402344 58.871094 21.332031 58.980469 21.269531 C 59.269531 21.101562 60.125 21.015625 62.5 22.660156 C 57.578125 18.789062 52.28125 17.195312 47.789062 16.757812 C 47.152344 16.683594 45.976562 16.636719 45.976562 16.636719 Z M 64.578125 24.46875 C 64.578125 25.542969 60.894531 26.425781 59.269531 26.726562 C 59.019531 26.769531 58.761719 26.8125 58.484375 26.859375 C 58.480469 26.863281 58.472656 26.863281 58.472656 26.863281 C 58.464844 26.863281 58.457031 26.863281 58.449219 26.867188 L 58.417969 26.878906 L 58.421875 26.878906 C 62.953125 34.320312 64.121094 40.429688 64.476562 47.316406 C 66.625 46.644531 66.984375 43.574219 65.855469 41.480469 C 67.269531 41.976562 67.964844 40.601562 67.902344 39.050781 C 67.789062 36.421875 65.554688 33.699219 64.125 35.167969 C 63.304688 32.882812 62.15625 30.519531 60.960938 28.542969 C 61.082031 28.519531 61.296875 28.46875 61.414062 28.445312 C 62.433594 28.246094 63.660156 27.714844 64.402344 27.480469 C 64.683594 28.035156 65.160156 29.367188 66.621094 30.027344 C 66.664062 30.046875 66.707031 30.0625 66.75 30.078125 C 67.160156 30.261719 67.546875 30.246094 67.59375 29.636719 C 67.609375 29.4375 67.53125 29.027344 67.402344 28.667969 C 67.289062 28.351562 67.207031 28.148438 67.078125 27.929688 C 66.019531 25.917969 64.578125 24.46875 64.578125 24.46875 Z M 64.476562 47.316406 C 64.332031 47.328125 64.144531 47.332031 64.003906 47.3125 C 62.527344 47.117188 61.289062 44.621094 61.941406 42.078125 C 59.863281 43.515625 57.523438 40.5625 57.863281 37.832031 C 58.046875 36.386719 58.996094 35.101562 60.648438 35.695312 C 59.976562 33.386719 59.136719 31.203125 58.152344 29.191406 C 56.683594 29.375 55.074219 29.53125 53.367188 29.652344 C 54.886719 31.945312 53.394531 34.074219 51.28125 33.734375 C 49.746094 33.488281 48.316406 31.878906 48.714844 29.964844 C 47.472656 30.828125 44.917969 30.488281 44.679688 27.769531 C 44.613281 33.539062 44.574219 40.917969 44.585938 48.597656 C 52.125 48.671875 60.957031 47.867188 64.476562 47.316406 Z M 24.4375 47.171875 C 26.636719 47.917969 27.242188 51.191406 26.675781 53.007812 C 28.78125 52.195312 31.433594 55.839844 30.503906 58.277344 C 30.078125 59.402344 28.96875 59.710938 27.804688 59.039062 C 28.433594 61.167969 29.246094 63.109375 30.222656 64.835938 C 31.714844 65.039062 33.390625 65.21875 35.21875 65.355469 C 33.75 63.542969 34.929688 62.058594 36.894531 62.15625 C 38.578125 62.246094 40.808594 63.648438 40.335938 65.5625 C 41.851562 64.878906 44.414062 65.4375 44.726562 67.414062 C 44.652344 63.160156 44.601562 56.914062 44.589844 49.539062 C 44.589844 49.21875 44.585938 48.921875 44.585938 48.597656 C 42.191406 48.605469 39.765625 48.511719 37.347656 48.414062 C 32.222656 48.199219 28.730469 47.90625 24.4375 47.175781 Z M 24.4375 47.175781 C 22.253906 47.167969 22.011719 50.296875 22.914062 52.378906 C 21.714844 51.472656 21.246094 52.3125 21.101562 52.710938 C 20.382812 54.6875 22.640625 59.363281 24.410156 58.46875 C 25.164062 60.621094 26.140625 62.589844 27.304688 64.347656 C 26.066406 64.097656 25.039062 63.820312 24.25 63.527344 C 24.226562 63.488281 22.238281 60.007812 20.964844 59.582031 C 20.847656 59.546875 20.660156 59.558594 20.648438 59.546875 C 20.726562 59.664062 21.460938 60.941406 22.332031 62.070312 C 23.535156 63.628906 24.898438 65.027344 24.917969 65.03125 C 24.953125 65.039062 25.003906 65.039062 25.160156 65.121094 C 26.09375 65.597656 27.492188 65.964844 29.921875 66.402344 C 25.429688 60.015625 24.488281 54.070312 24.4375 47.175781 Z M 29.925781 66.40625 C 33.582031 71.195312 37.222656 72.386719 39.3125 72.796875 C 39.773438 72.890625 39.976562 72.933594 40.800781 73.058594 C 40.800781 73.058594 41.027344 73.097656 41.027344 73.09375 C 39.941406 72.707031 38.90625 72.199219 37.816406 71.816406 C 36.964844 71.519531 36.703125 71.5 36.53125 71.574219 C 35.097656 70.734375 33.769531 69.601562 32.578125 68.21875 C 33.832031 68.390625 35.242188 68.542969 36.785156 68.660156 C 36.898438 69.664062 38.382812 70.667969 39.628906 70.894531 C 41.230469 71.179688 42.019531 70.144531 41.113281 68.941406 C 43.058594 69.734375 44.4375 68.796875 44.683594 67.8125 C 44.710938 67.695312 44.714844 67.535156 44.726562 67.417969 C 38.617188 67.375 34.332031 67.082031 29.925781 66.40625 Z M 29.925781 66.40625 "/>
<path style=" stroke:none;fill-rule:nonzero;fill:rgb(0%,0%,0%);fill-opacity:1;" d="M 47.820312 4.960938 C 46.933594 4.960938 46.253906 5.480469 46.195312 6.21875 C 46.066406 7.886719 49.089844 8.546875 48.984375 9.917969 C 48.925781 10.671875 48.21875 10.988281 47.582031 10.9375 C 46.839844 10.878906 46.210938 10.332031 46.078125 9.46875 L 45.894531 9.453125 L 45.980469 10.917969 L 46.144531 10.933594 C 46.1875 10.875 46.257812 10.835938 46.34375 10.84375 C 46.480469 10.851562 47.125 11.160156 47.648438 11.203125 C 48.761719 11.289062 49.648438 10.660156 49.71875 9.722656 C 49.855469 7.972656 46.824219 7.371094 46.933594 6.015625 C 46.972656 5.484375 47.4375 5.15625 48.070312 5.203125 C 48.726562 5.257812 49.300781 5.742188 49.515625 6.449219 L 49.675781 6.460938 L 49.609375 5.238281 L 49.457031 5.226562 C 49.394531 5.296875 49.355469 5.316406 49.277344 5.308594 C 48.945312 5.28125 48.800781 5.03125 48 4.96875 C 47.941406 4.964844 47.878906 4.960938 47.820312 4.960938 Z M 39.617188 5.308594 C 39.425781 5.308594 39.21875 5.324219 39 5.347656 C 38.382812 5.421875 38.195312 5.453125 37.808594 5.519531 C 37.421875 5.585938 36.847656 5.691406 36.617188 5.714844 L 36.640625 5.898438 L 36.847656 5.871094 C 37.398438 5.808594 37.582031 5.960938 37.652344 6.546875 L 38.125 10.542969 C 38.203125 11.179688 38.019531 11.355469 37.460938 11.421875 L 37.300781 11.4375 L 37.320312 11.621094 L 40.007812 11.300781 L 39.988281 11.117188 L 39.769531 11.144531 C 39.238281 11.207031 38.992188 11.09375 38.925781 10.523438 L 38.734375 8.921875 C 38.886719 8.914062 39.011719 8.90625 39.21875 8.882812 C 39.476562 8.851562 39.628906 8.824219 39.863281 8.785156 C 40.109375 8.910156 40.472656 9.148438 40.941406 9.515625 L 41.640625 10.066406 C 42.585938 10.8125 43.058594 11.121094 44.707031 10.847656 L 44.691406 10.675781 C 43.953125 10.714844 43.332031 10.433594 42.703125 9.941406 L 41.867188 9.28125 C 41.367188 8.886719 41.050781 8.65625 40.667969 8.421875 C 41.417969 8.101562 41.832031 7.445312 41.746094 6.734375 C 41.644531 5.886719 40.964844 5.300781 39.621094 5.308594 Z M 39.316406 5.523438 C 40.386719 5.542969 40.765625 6.125 40.859375 6.898438 C 40.996094 8.035156 40.355469 8.5625 39.300781 8.691406 C 39.082031 8.714844 38.941406 8.742188 38.710938 8.738281 L 38.339844 5.628906 C 38.507812 5.589844 38.632812 5.574219 38.8125 5.550781 C 38.996094 5.53125 39.164062 5.519531 39.316406 5.523438 Z M 52.421875 5.675781 L 52.382812 5.851562 C 52.898438 5.992188 53.046875 6.171875 52.9375 6.675781 L 52.070312 10.652344 C 51.9375 11.28125 51.78125 11.402344 51.195312 11.304688 L 51.160156 11.484375 L 53.425781 11.976562 L 53.464844 11.796875 C 52.820312 11.660156 52.714844 11.441406 52.832031 10.886719 L 53.695312 6.929688 C 53.832031 6.304688 54.066406 6.21875 54.65625 6.34375 L 54.691406 6.167969 L 52.421875 5.671875 Z M 33.832031 6.539062 L 29.492188 8.035156 L 29.550781 8.203125 L 29.75 8.136719 C 30.355469 7.925781 30.546875 8.105469 30.722656 8.609375 L 32.039062 12.425781 C 32.226562 12.96875 32.167969 13.207031 31.445312 13.457031 L 31.191406 13.542969 L 31.25 13.714844 L 36.046875 12.0625 L 35.730469 10.667969 L 35.566406 10.722656 C 35.609375 11.578125 35.503906 11.886719 34.871094 12.105469 L 33.476562 12.585938 C 33.144531 12.699219 32.960938 12.671875 32.820312 12.253906 L 32.15625 10.332031 L 33.683594 9.804688 C 34.054688 9.675781 34.25 9.6875 34.542969 10.304688 L 34.714844 10.246094 L 34.121094 8.527344 L 33.949219 8.589844 C 34.085938 9.128906 33.984375 9.335938 33.660156 9.449219 L 32.042969 10.003906 L 31.277344 7.785156 L 33.183594 7.125 C 33.507812 7.015625 33.789062 7.097656 34.171875 7.824219 L 34.335938 7.769531 Z M 57.214844 6.652344 L 56.5 8.035156 L 56.660156 8.097656 C 57.105469 7.367188 57.34375 7.226562 57.699219 7.367188 L 59.246094 7.980469 L 57.503906 12.371094 C 57.316406 12.851562 57.089844 12.957031 56.546875 12.742188 L 56.21875 12.609375 L 56.152344 12.777344 L 58.949219 13.890625 L 59.019531 13.71875 L 58.6875 13.589844 C 58.144531 13.375 58.050781 13.144531 58.242188 12.664062 L 59.984375 8.273438 L 61.527344 8.886719 C 61.886719 9.027344 61.964844 9.296875 61.789062 10.132812 L 61.949219 10.195312 L 62.375 8.695312 L 62.207031 8.632812 C 62.144531 8.730469 62.003906 8.707031 61.878906 8.65625 L 57.605469 6.960938 C 57.542969 6.9375 57.484375 6.902344 57.4375 6.863281 C 57.390625 6.824219 57.367188 6.777344 57.382812 6.71875 Z M 27.570312 8.855469 L 25.65625 9.976562 L 25.75 10.132812 C 26.308594 9.804688 26.574219 9.78125 26.71875 10.03125 C 26.785156 10.148438 26.832031 10.339844 26.878906 10.625 L 27.570312 14.792969 L 23.921875 11.96875 C 23.542969 11.683594 23.625 11.402344 24.371094 10.941406 L 24.28125 10.785156 L 22.011719 12.113281 L 22.105469 12.269531 C 22.609375 11.976562 22.78125 12.039062 23.289062 12.441406 L 27.691406 15.851562 L 28.105469 15.613281 L 27.226562 10.222656 C 27.128906 9.59375 27.230469 9.265625 27.660156 9.011719 Z M 64.371094 9.832031 L 64.269531 9.984375 C 64.777344 10.347656 64.882812 10.578125 64.863281 11.449219 L 64.804688 14.605469 L 64.054688 15.722656 C 63.792969 16.113281 63.527344 16.203125 63.035156 15.871094 L 62.886719 15.769531 L 62.785156 15.921875 L 64.96875 17.382812 L 65.070312 17.234375 L 64.96875 17.164062 C 64.480469 16.839844 64.441406 16.570312 64.726562 16.148438 L 65.523438 14.960938 L 68.332031 13.605469 C 68.804688 13.382812 69.179688 13.320312 69.746094 13.644531 L 69.847656 13.492188 L 68.050781 12.292969 L 67.949219 12.445312 C 68.457031 12.78125 68.519531 13.019531 67.972656 13.285156 L 65.578125 14.445312 L 65.617188 11.632812 C 65.625 11.105469 65.761719 10.980469 66.382812 11.394531 L 66.484375 11.246094 Z M 20.375 13.46875 L 18.585938 14.953125 L 18.703125 15.09375 C 19.132812 14.773438 19.363281 14.769531 19.695312 15.164062 L 22.296875 18.296875 C 22.703125 18.789062 22.707031 18.988281 22.269531 19.386719 L 22.382812 19.527344 L 24.171875 18.042969 L 24.054688 17.90625 C 23.546875 18.324219 23.308594 18.273438 22.949219 17.839844 L 20.363281 14.722656 C 19.953125 14.230469 20.03125 13.996094 20.492188 13.609375 Z M 16.816406 16.390625 L 15.375 18.101562 L 15.511719 18.21875 C 16.019531 17.644531 16.210938 17.582031 16.65625 17.957031 L 19.566406 20.410156 L 13.078125 20.828125 L 12.113281 21.976562 L 12.25 22.09375 C 12.472656 21.84375 12.691406 21.703125 12.949219 21.632812 L 16.546875 24.664062 C 16.882812 24.945312 16.910156 25.222656 16.527344 25.671875 L 16.503906 25.703125 L 16.644531 25.820312 L 18.074219 24.125 L 17.933594 24.007812 C 17.410156 24.628906 17.203125 24.652344 16.675781 24.210938 L 13.542969 21.566406 L 20.695312 21.117188 L 20.855469 20.929688 L 16.777344 17.492188 C 16.492188 17.253906 16.496094 17.054688 16.957031 16.507812 Z M 44.945312 16.613281 C 42.117188 18.210938 39.640625 25.171875 38.269531 33.984375 C 38.269531 33.988281 38.269531 33.996094 38.265625 34.003906 C 40.304688 36.597656 41.800781 38.238281 44.59375 41.164062 C 44.59375 40.820312 44.601562 39.042969 44.617188 36.582031 C 44.625 34.105469 44.644531 30.894531 44.679688 27.769531 C 44.742188 22.460938 44.84375 17.453125 44.945312 16.613281 Z M 44.945312 16.613281 C 42.65625 16.617188 40.628906 16.859375 38.316406 17.414062 C 35.019531 18.203125 33.832031 19.296875 31.753906 20.800781 C 35.667969 18.453125 40.167969 16.816406 44.945312 16.613281 Z M 38.265625 34.003906 C 38.265625 33.996094 38.269531 33.988281 38.269531 33.984375 C 36.191406 31.152344 35.53125 29.808594 34.71875 27.429688 C 32.9375 31.191406 31.601562 35.695312 30.867188 40.535156 C 32.601562 43.117188 33.675781 44.621094 37.128906 48.402344 C 37.167969 43.335938 37.582031 38.425781 38.265625 34.003906 Z M 34.71875 27.429688 C 37.367188 21.847656 40.96875 17.683594 44.945312 16.613281 C 41.882812 16.785156 40.367188 17.449219 38.785156 18.089844 C 40.707031 17.378906 42.871094 16.800781 44.941406 16.613281 C 41.308594 17.183594 37.894531 19.210938 34.933594 21.9375 C 34.152344 23.953125 34.199219 25.136719 34.707031 27.453125 C 34.710938 27.445312 34.714844 27.4375 34.71875 27.429688 Z M 38.785156 18.089844 C 34.644531 19.710938 30.917969 22.488281 27.902344 25.953125 C 27.078125 28.535156 27.078125 29.972656 27.492188 32.730469 C 29.335938 28.425781 31.90625 24.699219 34.945312 21.914062 C 35.882812 20.292969 36.46875 19.324219 38.785156 18.089844 Z M 74.101562 19.246094 C 73.472656 19.269531 72.84375 19.488281 72.277344 19.921875 C 70.855469 21.007812 70.851562 22.988281 71.988281 24.480469 C 73.113281 25.953125 75.132812 26.359375 76.667969 25.191406 C 78.03125 24.148438 78.074219 22.167969 76.980469 20.734375 C 76.210938 19.722656 75.15625 19.207031 74.101562 19.246094 Z M 74.808594 19.804688 C 75.460938 19.78125 76.128906 20.011719 76.640625 20.679688 C 77.597656 21.933594 77.28125 23.589844 75.871094 24.667969 C 74.789062 25.492188 73.242188 25.734375 72.300781 24.492188 C 71.367188 23.269531 71.632812 21.542969 73.054688 20.457031 C 73.511719 20.109375 74.152344 19.832031 74.808594 19.804688 Z M 31.726562 20.816406 C 23.417969 25.804688 17.710938 34.910156 17.398438 45.179688 C 17.996094 45.558594 18.863281 45.964844 20.046875 46.253906 C 20.257812 38.515625 23.234375 31.308594 27.898438 25.957031 C 28.890625 23.601562 29.761719 22.558594 31.726562 20.816406 Z M 10.800781 23.953125 L 9.804688 25.964844 L 9.964844 26.046875 C 10.355469 25.351562 10.5625 25.296875 11.386719 25.703125 L 13.382812 26.695312 C 14.835938 27.417969 14.75 28.597656 14.269531 29.570312 C 13.636719 30.84375 12.609375 31.175781 11.453125 30.601562 L 9.070312 29.421875 C 8.574219 29.175781 8.546875 28.90625 8.78125 28.433594 L 8.820312 28.359375 L 8.660156 28.277344 L 7.566406 30.476562 L 7.730469 30.558594 C 8.023438 29.980469 8.1875 29.871094 8.738281 30.140625 L 11.238281 31.378906 C 12.460938 31.988281 13.808594 31.613281 14.621094 29.976562 C 15.542969 28.121094 14.738281 26.875 13.675781 26.351562 L 11.367188 25.203125 C 10.820312 24.933594 10.6875 24.613281 10.964844 24.035156 Z M 80.203125 25.871094 L 80.039062 25.949219 C 80.316406 26.554688 80.085938 26.71875 79.535156 26.980469 L 76.152344 28.59375 C 75.453125 28.925781 75.296875 28.886719 75.007812 28.367188 L 74.84375 28.445312 L 75.84375 30.542969 L 76.007812 30.464844 C 75.699219 29.816406 75.832031 29.628906 76.316406 29.398438 L 78.203125 28.496094 L 78.964844 30.09375 C 79.164062 30.503906 79.09375 30.761719 78.601562 31.019531 L 78.671875 31.164062 L 80.191406 30.4375 L 80.121094 30.292969 C 79.738281 30.445312 79.480469 30.375 79.328125 30.054688 L 78.515625 28.347656 L 80.539062 27.378906 L 81.324219 29.019531 C 81.578125 29.554688 81.453125 29.824219 80.957031 30.074219 L 81.027344 30.21875 L 82.042969 29.734375 Z M 27.496094 32.726562 C 25.628906 37.097656 24.554688 42.027344 24.441406 47.171875 C 26.203125 47.480469 28.164062 47.753906 30.238281 47.953125 C 30.273438 45.429688 30.488281 42.941406 30.851562 40.539062 C 28.828125 37.140625 28.214844 35.59375 27.496094 32.726562 Z M 5.535156 42.609375 C 5.320312 42.917969 4.574219 43.59375 4.050781 43.945312 L 4.121094 44.074219 C 4.453125 43.917969 4.960938 43.585938 5.25 43.332031 L 5.25 47.835938 C 5.25 48.105469 5.195312 48.1875 4.90625 48.1875 L 4.417969 48.1875 L 4.417969 48.351562 L 6.6875 48.351562 L 6.6875 48.1875 L 6.179688 48.1875 C 5.898438 48.1875 5.847656 48.113281 5.847656 47.84375 L 5.847656 42.609375 Z M 9.835938 42.613281 C 8.941406 42.613281 8.195312 43.28125 8.195312 44.074219 C 8.195312 44.6875 8.582031 45.148438 9.425781 45.527344 C 8.542969 45.875 8.113281 46.375 8.113281 47.003906 C 8.113281 47.824219 8.882812 48.484375 9.863281 48.484375 C 10.867188 48.484375 11.644531 47.761719 11.644531 46.824219 C 11.644531 46.128906 11.238281 45.652344 10.285156 45.226562 C 11.082031 44.910156 11.464844 44.488281 11.464844 43.910156 C 11.464844 43.1875 10.738281 42.613281 9.835938 42.613281 Z M 9.832031 42.777344 C 10.460938 42.777344 10.917969 43.253906 10.917969 43.902344 C 10.917969 44.414062 10.664062 44.832031 10.164062 45.148438 C 8.996094 44.648438 8.726562 44.289062 8.726562 43.792969 C 8.726562 43.226562 9.210938 42.777344 9.832031 42.777344 Z M 80.898438 43.140625 C 80.855469 43.222656 80.800781 43.257812 80.640625 43.257812 L 78.503906 43.257812 L 78.378906 46.128906 L 78.464844 46.191406 C 78.734375 45.960938 79.089844 45.832031 79.421875 45.832031 C 80.195312 45.832031 80.765625 46.453125 80.765625 47.28125 C 80.765625 48.105469 80.195312 48.800781 79.53125 48.800781 C 78.960938 48.800781 78.789062 48.167969 78.304688 48.167969 C 78.140625 48.167969 78.007812 48.296875 78.007812 48.449219 C 78.007812 48.765625 78.601562 49.015625 79.324219 49.015625 C 80.53125 49.015625 81.441406 48.183594 81.441406 47.09375 C 81.441406 46.074219 80.605469 45.234375 79.59375 45.234375 C 79.222656 45.234375 78.898438 45.304688 78.621094 45.457031 L 78.691406 43.839844 L 80.972656 43.839844 L 81.074219 43.140625 Z M 85.425781 43.144531 C 83.539062 43.675781 82.402344 45 82.402344 46.667969 C 82.402344 48.054688 83.175781 49.015625 84.289062 49.015625 C 85.253906 49.015625 86.046875 48.1875 86.046875 47.195312 C 86.046875 46.273438 85.332031 45.53125 84.449219 45.53125 C 84.007812 45.53125 83.65625 45.675781 83.167969 46.054688 C 83.367188 44.738281 84.117188 43.855469 85.523438 43.273438 Z M 73.375 44.363281 C 73.222656 44.636719 72.765625 44.988281 72.292969 45.261719 C 72.300781 45.578125 72.308594 45.886719 72.308594 46.207031 C 72.324219 55.832031 67.8125 63.90625 60.671875 68.625 C 60.484375 68.765625 60.089844 69.015625 59.65625 69.28125 L 59.558594 69.355469 C 63.160156 67.140625 67.714844 63.402344 70.609375 57.214844 C 73.714844 51.109375 73.375 44.363281 73.375 44.363281 Z M 59.65625 69.28125 L 59.761719 69.203125 C 60.070312 69.015625 60.371094 68.820312 60.671875 68.625 C 60.683594 68.613281 60.714844 68.59375 60.726562 68.585938 C 61.851562 67.675781 62.203125 66.988281 62.671875 65.957031 C 62.667969 65.960938 62.667969 65.960938 62.664062 65.964844 C 61.730469 67.015625 56.511719 71.289062 52.691406 72.316406 C 53.308594 72.140625 53.867188 72 54.46875 71.75 C 56.625 70.863281 56.9375 70.839844 58.539062 69.941406 C 58.789062 69.800781 59.234375 69.539062 59.65625 69.28125 Z M 62.664062 65.964844 C 66.753906 61.328125 69.257812 54.785156 69.246094 47.3125 C 69.246094 47 69.238281 46.6875 69.230469 46.375 C 67.910156 46.726562 66.273438 47.039062 64.476562 47.3125 C 64.503906 47.628906 64.515625 47.949219 64.515625 48.265625 C 64.523438 53.121094 63.695312 57.535156 62.199219 61.265625 C 63.042969 63.429688 63.054688 64.335938 62.664062 65.964844 Z M 9.597656 45.617188 C 10.648438 46.09375 11.066406 46.472656 11.066406 47.078125 C 11.066406 47.78125 10.550781 48.324219 9.871094 48.324219 C 9.183594 48.324219 8.675781 47.753906 8.675781 46.988281 C 8.675781 46.402344 8.984375 45.949219 9.597656 45.617188 Z M 84.316406 45.75 C 84.917969 45.75 85.371094 46.308594 85.371094 47.277344 C 85.371094 48.300781 84.9375 48.871094 84.308594 48.871094 C 83.738281 48.871094 83.078125 48.371094 83.078125 46.855469 C 83.078125 46.546875 83.097656 46.417969 83.125 46.292969 C 83.675781 45.851562 84.082031 45.75 84.316406 45.75 Z M 58.519531 47.992188 C 55.761719 48.234375 54.019531 48.34375 51.820312 48.453125 C 51.824219 48.453125 51.820312 48.453125 51.820312 48.453125 C 55.710938 52.496094 56.539062 53.445312 58.179688 55.328125 C 58.414062 53.320312 58.535156 51.191406 58.53125 48.964844 C 58.53125 48.648438 58.527344 48.308594 58.519531 47.992188 Z M 51.820312 48.453125 C 48.949219 48.566406 47.054688 48.601562 44.585938 48.597656 C 44.585938 48.910156 44.589844 49.226562 44.589844 49.539062 C 44.59375 51.753906 44.601562 53.867188 44.609375 55.855469 C 49.15625 60.167969 49.15625 60.167969 51.050781 62.0625 C 51.554688 58.460938 51.835938 54.160156 51.828125 49.394531 C 51.828125 49.082031 51.824219 48.765625 51.824219 48.453125 Z M 58.179688 55.328125 C 58.1875 55.289062 56.546875 63.851562 55 66.910156 C 55.890625 68.625 55.929688 69.308594 55.570312 70.433594 C 58.328125 68.339844 60.597656 65.1875 62.160156 61.28125 C 61.15625 59.242188 60.476562 58.152344 58.179688 55.328125 Z M 15.316406 60.550781 L 15.136719 60.679688 C 15.542969 61.324219 15.378906 61.472656 14.699219 61.902344 L 10.679688 64.457031 C 9.746094 65.058594 9.523438 65.085938 8.996094 64.363281 L 8.808594 64.5 L 10.300781 66.558594 L 10.492188 66.417969 C 10.1875 65.960938 10.023438 65.507812 10.550781 65.171875 L 15.191406 62.210938 L 15.207031 62.230469 L 11.765625 68.574219 L 11.929688 68.800781 L 18.984375 67.4375 L 19 67.457031 L 14.777344 70.957031 C 14.285156 71.378906 13.824219 71.015625 13.488281 70.550781 L 13.300781 70.6875 L 15.144531 73.226562 L 15.328125 73.09375 C 14.808594 72.371094 14.75 72.292969 15.617188 71.570312 L 19.867188 68.007812 C 20.1875 67.742188 20.332031 67.925781 20.722656 68.378906 L 20.898438 68.25 L 19.847656 66.796875 L 13.144531 68.039062 L 16.398438 62.042969 Z M 75.957031 60.96875 C 74.761719 61.03125 73.511719 61.789062 72.417969 63.480469 C 72.070312 64.015625 71.675781 64.644531 71.332031 65.222656 C 70.988281 65.800781 70.683594 66.316406 70.460938 66.710938 L 70.652344 66.835938 L 70.785156 66.632812 C 71.175781 66.027344 71.457031 65.957031 72.121094 66.386719 L 76.535156 69.238281 C 77.125 69.621094 77.113281 69.980469 76.757812 70.535156 L 76.644531 70.707031 L 76.839844 70.832031 L 78.960938 67.550781 C 80.636719 64.957031 79.558594 62.554688 78.007812 61.554688 C 77.375 61.144531 76.675781 60.933594 75.957031 60.96875 Z M 75.554688 61.957031 C 76.285156 61.980469 76.980469 62.257812 77.550781 62.625 C 78.605469 63.308594 79.089844 64.289062 79.214844 64.90625 C 79.4375 65.957031 79.261719 66.65625 78.375 68.03125 C 77.851562 68.839844 77.6875 68.777344 77.265625 68.507812 L 71.789062 64.964844 C 71.859375 64.835938 72.007812 64.539062 72.277344 64.117188 C 73.207031 62.683594 74.035156 62.1875 74.8125 62.019531 C 75.0625 61.96875 75.308594 61.945312 75.554688 61.957031 Z M 51.050781 62.078125 C 50.082031 68.988281 48.363281 73.242188 46.246094 73.332031 C 46.421875 73.328125 46.699219 73.308594 46.878906 73.300781 C 47.105469 73.28125 47.378906 73.257812 47.605469 73.242188 C 50.542969 72.980469 53.070312 70.726562 55 66.910156 C 54.007812 65.292969 53.101562 64.238281 51.046875 62.078125 Z M 69.785156 67.535156 L 67.582031 69.355469 L 67.730469 69.535156 C 68.5 68.929688 68.753906 68.894531 69.230469 69.46875 L 72.324219 73.214844 L 64.070312 72.257812 L 62.59375 73.480469 L 62.738281 73.660156 C 63.078125 73.394531 63.386719 73.269531 63.726562 73.238281 L 67.550781 77.871094 C 67.910156 78.304688 67.882812 78.65625 67.300781 79.140625 L 67.261719 79.171875 L 67.410156 79.351562 L 69.597656 77.546875 L 69.449219 77.367188 C 68.648438 78.027344 68.378906 78.011719 67.820312 77.332031 L 64.480469 73.296875 L 73.574219 74.367188 L 73.820312 74.164062 L 69.480469 68.914062 C 69.175781 68.542969 69.226562 68.296875 69.933594 67.714844 Z M 55.578125 70.40625 C 53.707031 71.8125 51.707031 72.675781 49.476562 73.023438 L 50.054688 72.925781 C 50.675781 72.816406 50.640625 72.804688 51.78125 72.550781 L 52.464844 72.355469 C 54.558594 71.703125 54.925781 71.375 55.578125 70.40625 Z M 24.96875 71.1875 L 24.898438 71.464844 L 19.511719 75.042969 C 18.566406 75.664062 18.378906 75.695312 17.734375 75.230469 L 17.59375 75.421875 L 19.867188 77.089844 L 20.007812 76.902344 L 19.847656 76.789062 C 19.308594 76.390625 19.121094 76.101562 19.320312 75.839844 C 19.417969 75.703125 19.761719 75.5 19.972656 75.363281 L 21.675781 74.238281 L 23.714844 75.738281 L 23.058594 78.011719 C 23.023438 78.140625 22.984375 78.335938 22.867188 78.496094 C 22.664062 78.769531 22.414062 78.675781 21.855469 78.265625 L 21.597656 78.074219 L 21.460938 78.261719 L 24.167969 80.253906 L 24.304688 80.066406 C 23.8125 79.703125 23.679688 79.453125 23.867188 78.789062 L 25.824219 71.816406 Z M 24.683594 72.253906 L 23.867188 75.179688 L 22.164062 73.929688 Z M 29.527344 74.691406 L 29.449219 74.910156 L 29.699219 75 C 30.371094 75.234375 30.492188 75.511719 30.238281 76.226562 L 28.519531 81.074219 C 28.246094 81.84375 27.941406 81.941406 27.261719 81.703125 L 27.0625 81.632812 L 26.984375 81.847656 L 30.246094 83.003906 L 30.320312 82.789062 L 30.058594 82.691406 C 29.414062 82.464844 29.199219 82.195312 29.441406 81.503906 L 30.132812 79.558594 C 30.3125 79.632812 30.457031 79.699219 30.710938 79.789062 C 31.023438 79.898438 31.210938 79.953125 31.503906 80.042969 C 31.710938 80.328125 32 80.804688 32.324219 81.488281 L 32.816406 82.519531 C 33.476562 83.90625 33.839844 84.527344 35.886719 85.148438 L 35.957031 84.945312 C 35.09375 84.570312 34.542969 83.894531 34.101562 82.976562 L 33.519531 81.742188 C 33.167969 81.011719 32.9375 80.566406 32.628906 80.082031 C 33.671875 80.136719 34.515625 79.625 34.824219 78.757812 C 35.238281 77.585938 34.59375 76.371094 32.464844 75.617188 C 31.714844 75.351562 31.480469 75.28125 31 75.136719 C 30.523438 74.992188 29.804688 74.789062 29.527344 74.691406 Z M 58.09375 75.273438 L 57.113281 75.683594 L 57.320312 75.886719 L 57.605469 82.347656 C 57.65625 83.476562 57.582031 83.652344 56.855469 83.972656 L 56.945312 84.183594 L 59.546875 83.097656 L 59.457031 82.882812 L 59.277344 82.957031 C 58.660156 83.21875 58.320312 83.226562 58.191406 82.921875 C 58.125 82.765625 58.128906 82.367188 58.121094 82.121094 L 58.035156 80.078125 L 60.367188 79.101562 L 61.980469 80.835938 C 62.070312 80.929688 62.21875 81.066406 62.296875 81.25 C 62.429688 81.5625 62.21875 81.730469 61.578125 81.996094 L 61.285156 82.121094 L 61.375 82.335938 L 64.472656 81.039062 L 64.382812 80.824219 C 63.820312 81.058594 63.535156 81.046875 63.0625 80.542969 Z M 31.550781 75.5625 C 31.765625 75.613281 31.917969 75.667969 32.136719 75.746094 C 33.90625 76.375 34.097656 77.375 33.71875 78.445312 C 33.226562 79.824219 32.195312 80.066406 30.917969 79.617188 C 30.652344 79.523438 30.476562 79.472656 30.210938 79.339844 Z M 57.878906 76.476562 L 59.96875 78.683594 L 58.019531 79.5 Z M 51.078125 77.601562 L 47.527344 78.199219 L 47.566406 78.425781 L 47.734375 78.402344 C 48.492188 78.273438 48.730469 78.503906 48.835938 79.144531 L 49.738281 84.476562 C 49.84375 85.09375 49.667969 85.304688 49.117188 85.398438 L 48.71875 85.46875 L 48.753906 85.695312 L 54.136719 84.789062 L 54.769531 82.871094 L 54.550781 82.90625 C 53.972656 84.085938 53.800781 84.398438 53.089844 84.519531 L 51.316406 84.816406 C 50.96875 84.875 50.816406 84.777344 50.761719 84.453125 L 49.820312 78.898438 C 49.695312 78.152344 49.886719 78.03125 50.667969 77.902344 L 51.113281 77.824219 L 51.074219 77.597656 Z M 37.828125 77.660156 L 37.808594 77.890625 C 38.597656 77.984375 38.863281 78.175781 39.378906 79.164062 L 41.257812 82.730469 L 41.109375 84.449219 C 41.058594 85.046875 40.816406 85.304688 40.0625 85.242188 L 39.832031 85.222656 L 39.8125 85.453125 L 43.15625 85.738281 L 43.175781 85.507812 L 43.019531 85.492188 C 42.277344 85.429688 42.070312 85.15625 42.121094 84.507812 L 42.277344 82.683594 L 44.589844 79.4375 C 44.980469 78.894531 45.359375 78.597656 46.191406 78.605469 L 46.210938 78.375 L 43.460938 78.140625 L 43.445312 78.371094 C 44.222656 78.4375 44.433594 78.664062 43.988281 79.300781 L 42.023438 82.074219 L 40.332031 78.902344 C 40.015625 78.3125 40.09375 78.085938 41.046875 78.167969 L 41.066406 77.933594 Z M 37.828125 77.660156 "/>
</g>
</svg>
